HIERARCHY
ROOT Hips
{
	OFFSET 0.000000 0.000000 0.000000
	CHANNELS 6 Xposition Yposition Zposition Xrotation Yrotation Zrotation
	JOINT LeftUpLeg_virtual
	{
		OFFSET 0.000000 0.000000 0.000000
		CHANNELS 3 Xrotation Yrotation Zrotation
		JOINT LeftUpLeg
		{
			OFFSET 13.026900 -6.336304 -1.092800
			CHANNELS 3 Xrotation Yrotation Zrotation
			JOINT LeftLeg
			{
				OFFSET 0.524474 -46.096886 9.782700
				CHANNELS 3 Xrotation Yrotation Zrotation
				JOINT LeftFoot
				{
					OFFSET -0.524474 -53.427422 -12.948200
					CHANNELS 3 Xrotation Yrotation Zrotation
					JOINT LeftToeBase
					{
						OFFSET 0.192200 -14.009700 16.364100
						CHANNELS 3 Xrotation Yrotation Zrotation
						JOINT LeftToe_End
						{
							OFFSET -1.784700 -0.561700 9.474800
							CHANNELS 3 Xrotation Yrotation Zrotation
							End Site
							{
								OFFSET 0 0 0
							}
						}
					}
				}
			}
		}
	}
	JOINT RightUpLeg_virtual
	{
		OFFSET 0.000000 0.000000 0.000000
		CHANNELS 3 Xrotation Yrotation Zrotation
		JOINT RightUpLeg
		{
			OFFSET -12.883000 -6.336304 -1.092800
			CHANNELS 3 Xrotation Yrotation Zrotation
			JOINT RightLeg
			{
				OFFSET -0.524587 -46.096825 9.782800
				CHANNELS 3 Xrotation Yrotation Zrotation
				JOINT RightFoot
				{
					OFFSET 0.524587 -53.427383 -12.948300
					CHANNELS 3 Xrotation Yrotation Zrotation
					JOINT RightToeBase
					{
						OFFSET -0.192200 -14.009700 16.364100
						CHANNELS 3 Xrotation Yrotation Zrotation
						JOINT RightToe_End
						{
							OFFSET 1.784700 -0.561700 9.474800
							CHANNELS 3 Xrotation Yrotation Zrotation
							End Site
							{
								OFFSET 0 0 0
							}
						}
					}
				}
			}
		}
	}
	JOINT Spine_virtual
	{
		OFFSET 0.000000 0.000000 0.000000
		CHANNELS 3 Xrotation Yrotation Zrotation
		JOINT Spine
		{
			OFFSET 0.072000 7.257294 -0.789700
			CHANNELS 3 Xrotation Yrotation Zrotation
			JOINT Spine1
			{
				OFFSET 0.000000 12.508769 -0.658067
				CHANNELS 3 Xrotation Yrotation Zrotation
				JOINT Spine1_split
				{
					OFFSET 0.000000 12.508769 -0.658067
					CHANNELS 3 Xrotation Yrotation Zrotation
					JOINT Spine2
					{
						OFFSET 0.000000 12.508769 -0.658067
						CHANNELS 3 Xrotation Yrotation Zrotation
						JOINT Neck_virtual
						{
							OFFSET 0.000000 0.000000 0.000000
							CHANNELS 3 Xrotation Yrotation Zrotation
							JOINT Neck
							{
								OFFSET 0.000000 14.033295 7.520400
								CHANNELS 3 Xrotation Yrotation Zrotation
								JOINT Head
								{
									OFFSET 0.000000 8.198502 5.703100
									CHANNELS 3 Xrotation Yrotation Zrotation
									JOINT HeadTop_End
									{
										OFFSET 0.000000 17.760803 13.332701
										CHANNELS 3 Xrotation Yrotation Zrotation
										End Site
										{
											OFFSET 0 0 0
										}
									}
								}
							}
						}
						JOINT LeftShoulder_virtual
						{
							OFFSET 0.000000 0.000000 0.000000
							CHANNELS 3 Xrotation Yrotation Zrotation
							JOINT LeftShoulder
							{
								OFFSET 6.292450 5.785301 -0.669000
								CHANNELS 3 Xrotation Yrotation Zrotation
								JOINT LeftShoulder_split
								{
									OFFSET 6.292450 5.785301 -0.669000
									CHANNELS 3 Xrotation Yrotation Zrotation
									JOINT LeftArm
									{
										OFFSET 13.907140 -6.093903 1.965100
										CHANNELS 3 Xrotation Yrotation Zrotation
										JOINT LeftForeArm
										{
											OFFSET 34.140198 0.000000 0.000000
											CHANNELS 3 Xrotation Yrotation Zrotation
											JOINT LeftHand
											{
												OFFSET 40.960209 0.000000 0.000000
												CHANNELS 3 Xrotation Yrotation Zrotation
												End Site
												{
													OFFSET 0 0 0
												}
											}
										}
									}
								}
							}
						}
						JOINT RightShoulder_virtual
						{
							OFFSET 0.000000 0.000000 0.000000
							CHANNELS 3 Xrotation Yrotation Zrotation
							JOINT RightShoulder
							{
								OFFSET -6.292450 5.785301 -0.669000
								CHANNELS 3 Xrotation Yrotation Zrotation
								JOINT RightShoulder_split
								{
									OFFSET -6.292450 5.785301 -0.669000
									CHANNELS 3 Xrotation Yrotation Zrotation
									JOINT RightArm
									{
										OFFSET -13.907140 -6.093903 1.965100
										CHANNELS 3 Xrotation Yrotation Zrotation
										JOINT RightForeArm
										{
											OFFSET -34.140198 0.000000 0.000000
											CHANNELS 3 Xrotation Yrotation Zrotation
											JOINT RightHand
											{
												OFFSET -40.960209 0.000000 0.000000
												CHANNELS 3 Xrotation Yrotation Zrotation
												End Site
												{
													OFFSET 0 0 0
												}
											}
										}
									}
								}
							}
						}
					}
				}
			}
		}
	}
}
MOTION
Frames: 7
Frame Time: 0.03333333
11.536281 85.858391 -22.111347 0.000000 0.000000 0.000000 3.418455 -69.374566 8.335941 -28.613182 -11.170622 25.933291 44.271616 -16.915954 4.689172 -4.808022 2.162725 -24.243688 -11.381572 -1.605876 -1.557389 0.000000 0.000000 0.000000 2.626582 -66.502547 8.048832 -20.625834 6.711175 -28.016483 44.919060 22.985292 -7.883482 -15.142984 -17.276171 44.533151 1.101465 7.537642 -16.266591 0.000000 0.000000 0.000000 4.286828 -63.868129 6.671160 -0.156244 3.973967 3.739968 3.982623 2.486576 1.981755 0.242699 -0.358719 0.086962 0.000000 0.000000 0.000000 4.497823 4.665857 2.023163 -7.022310 15.002782 -1.926664 -5.742227 15.786447 -3.721827 0.000000 0.000000 0.000000 2.427409 3.837022 0.792852 0.977519 6.650016 -4.990357 -2.664122 -0.669201 -0.824548 -11.944946 9.755202 -62.635430 162.626271 -67.975422 156.810939 0.000000 0.000000 0.000000 5.703732 4.306265 0.289742 -4.693828 0.238066 6.799508 0.602715 3.243389 8.314919 -6.596386 42.739086 47.424838 -171.629636 65.572200 176.423267 0.000000 0.000000 0.000000 
11.410377 85.190521 -21.634670 0.000000 0.000000 0.000000 0.448306 -69.798250 5.364225 -29.318105 -10.859167 26.998230 44.792821 -18.000694 5.880129 -6.669267 0.542799 -23.102229 -10.646471 -1.497078 -2.138150 0.000000 0.000000 0.000000 1.722368 -66.281412 6.289181 -17.842809 3.351742 -27.354199 42.977664 20.736830 -7.028697 -20.443839 -19.493365 36.866670 0.125576 8.664939 -16.884164 0.000000 0.000000 0.000000 1.690427 -63.832107 4.126805 -0.626491 4.158831 4.022360 3.842795 2.854546 2.290757 0.248429 -0.689939 0.104249 0.000000 0.000000 0.000000 4.840576 5.052116 2.277336 -7.115100 15.213888 -2.969270 -4.331928 16.808353 -4.952865 0.000000 0.000000 0.000000 2.816504 4.056445 1.032529 0.577507 6.469280 -4.781611 -0.959381 0.235324 -1.245941 -10.230477 7.555706 -63.443564 162.009068 -67.112626 156.399748 0.000000 0.000000 0.000000 5.871082 4.638306 0.631636 -4.716619 -1.305411 6.173317 0.457636 3.607867 8.547577 -6.756396 42.700710 47.268184 -172.416145 65.308903 177.545208 0.000000 0.000000 0.000000 
11.210745 88.103806 -21.329350 0.000000 0.000000 0.000000 -0.767562 -68.134443 3.886022 -31.274681 -10.126746 26.712726 41.857967 -20.066435 6.544756 -4.693362 -2.361583 -24.765006 -8.152780 -1.503957 -2.212282 0.000000 0.000000 0.000000 1.007299 -64.554222 5.133650 -17.763353 1.458702 -27.509929 42.711365 20.635125 -6.494370 -15.303252 -17.306922 34.948958 -4.175719 9.223067 -15.389132 0.000000 0.000000 0.000000 -0.750528 -61.691040 2.062456 -1.217769 4.058707 3.903220 3.550162 2.844693 2.404208 0.144155 -0.944374 0.044336 0.000000 0.000000 0.000000 4.874180 5.091649 2.383558 -7.026612 15.382552 -3.958557 -2.935271 17.529896 -5.858725 0.000000 0.000000 0.000000 2.977501 3.914567 1.158885 0.250181 6.106828 -4.288211 1.121991 0.736130 -1.135115 -9.059613 4.112384 -62.859652 162.501402 -66.236661 157.322138 0.000000 0.000000 0.000000 5.766720 4.536802 0.877945 -4.743262 -2.327987 5.400240 0.752529 3.932330 8.367561 -5.649598 41.470252 46.590558 -173.755450 63.989160 178.959439 0.000000 0.000000 0.000000 
10.953051 94.141754 -21.293285 0.000000 0.000000 0.000000 -0.642683 -64.109733 3.462612 -33.357059 -8.843110 25.088185 35.635894 -21.730510 6.039383 0.745045 -5.794237 -27.661470 -7.386868 -1.674594 -1.480728 0.000000 0.000000 0.000000 -0.222776 -61.053900 3.975226 -20.969910 2.076943 -29.033007 45.005909 23.499501 -6.711679 -0.822662 -10.157549 37.723647 -6.132793 8.405117 -12.328977 0.000000 0.000000 0.000000 -2.088799 -57.800558 1.080825 -1.585787 3.693850 3.497955 3.186464 2.455075 2.367030 -0.018235 -0.970927 0.014490 0.000000 0.000000 0.000000 4.463074 4.747961 2.358009 -6.725054 15.481607 -4.774908 -1.955300 17.943074 -6.200914 0.000000 0.000000 0.000000 2.838368 3.433389 1.204359 0.048212 5.642858 -3.881264 3.042427 0.806386 -0.511311 -8.370796 0.213009 -61.362324 163.994877 -65.430111 159.488660 0.000000 0.000000 0.000000 5.417969 4.034670 1.010380 -4.791966 -2.697272 4.492697 1.313956 3.853048 7.847401 -3.601806 39.025123 45.328591 -175.434597 61.894662 -179.592092 0.000000 0.000000 0.000000 
10.615675 101.727501 -21.375355 0.000000 0.000000 0.000000 0.384979 -58.482293 3.646643 -34.990653 -6.908472 22.604226 29.038484 -20.834065 4.836689 7.589627 -7.776199 -28.909606 -7.957031 -1.912536 -0.846195 0.000000 0.000000 0.000000 0.380496 -55.601954 3.897560 -23.926352 3.350874 -29.396847 45.243320 25.400927 -6.500332 11.940230 -3.640579 36.347094 -6.719337 6.859208 -9.272899 0.000000 0.000000 0.000000 -2.614671 -52.859705 0.776482 -1.673138 3.175769 3.056542 2.865448 1.770668 2.283284 -0.124479 -0.847625 -0.024827 0.000000 0.000000 0.000000 3.590308 4.090039 2.245115 -6.276394 15.429531 -5.365127 -1.866900 18.524701 -5.975289 0.000000 0.000000 0.000000 2.478712 2.716469 1.207517 0.016317 5.080908 -3.886080 4.261113 0.744531 -0.014870 -7.931098 -3.292288 -59.634095 166.467980 -64.630890 162.780360 0.000000 0.000000 0.000000 4.963329 3.311716 1.047384 -4.871808 -2.410457 3.677945 1.958402 3.524969 7.223596 -1.524251 35.444058 43.773982 -177.118621 59.802507 -178.415142 0.000000 0.000000 0.000000 
10.321143 109.027069 -21.525326 0.000000 0.000000 0.000000 1.416129 -52.839815 3.516840 -35.237062 -3.736282 20.132119 23.823229 -16.656711 3.554018 12.786354 -6.339668 -27.001696 -8.923601 -2.094007 -0.782712 0.000000 0.000000 0.000000 2.175262 -49.411784 3.955834 -23.923509 3.071027 -27.089744 40.870862 24.693152 -5.009439 16.178942 -2.497741 29.549154 -7.509526 5.369545 -7.604542 0.000000 0.000000 0.000000 -2.898774 -47.689535 0.632623 -1.430480 2.605446 2.652069 2.737854 0.939688 2.159781 -0.087430 -0.572428 0.011689 0.000000 0.000000 0.000000 2.547746 3.260231 2.073848 -5.847795 15.288998 -5.693659 -2.838058 19.345990 -5.453744 0.000000 0.000000 0.000000 2.061623 1.880386 1.176634 0.130160 4.496080 -4.362849 4.416388 0.744721 0.057337 -7.638904 -5.752878 -58.356836 169.498903 -63.910401 166.685398 0.000000 0.000000 0.000000 4.561504 2.510072 1.018471 -4.935949 -1.597331 3.015621 2.353872 3.032255 6.937371 -0.018068 31.064506 42.267854 -178.574340 58.781810 -177.648958 0.000000 0.000000 0.000000 
10.042730 114.970825 -21.524250 0.000000 0.000000 0.000000 2.133706 -48.308296 3.225138 -33.453655 0.305862 18.296547 20.582592 -10.229295 2.468884 13.928829 -1.625017 -22.443699 -9.896164 -2.214598 -1.093087 0.000000 0.000000 0.000000 3.302832 -43.207104 3.462512 -22.428265 1.364480 -23.342494 34.279657 22.025492 -3.174440 13.558849 -4.271209 21.241103 -6.875416 4.312097 -7.443292 0.000000 0.000000 0.000000 -2.892160 -42.295806 0.749124 -0.960108 2.059973 2.243347 2.928390 0.064683 1.959376 0.045999 -0.346895 0.099453 0.000000 0.000000 0.000000 1.766228 2.436349 1.830018 -5.466207 15.027668 -5.724935 -4.812665 20.748824 -4.971879 0.000000 0.000000 0.000000 1.774124 1.057541 1.073168 0.327739 3.799000 -5.153525 3.798442 0.864010 -0.151811 -7.566751 -6.919347 -57.761612 172.715608 -63.328592 170.765972 0.000000 0.000000 0.000000 4.289100 1.775156 0.916777 -4.899296 -0.526204 2.560154 2.326382 2.340767 7.194079 0.596999 26.361173 41.122950 -179.658373 59.446531 -177.295414 0.000000 0.000000 0.000000 
